<?xml version="1.0" encoding="UTF-8"?>
<svg version="1.1" xmlns="http://www.w3.org/2000/svg" width="736" height="688">
<path d="M0 0 C9.11728211 3.84708645 13.6157357 16.42446624 17.27734375 24.9609375 C25.78303678 46.06555961 25.06791532 66.08940215 21.69091797 88.18945312 C21.43669683 89.89306494 21.20205385 91.59990579 21.00048828 93.31054688 C20.07970465 101.04297546 18.05384311 105.92015997 12.03930664 110.80004883 C8.56310464 113.37375564 4.95840724 115.69320541 1.27734375 117.9609375 C0.23006104 118.62295166 0.23006104 118.62295166 -0.83837891 119.29833984 C-6.97836186 123.17093872 -13.19230892 126.77516015 -19.72265625 129.9609375 C-12.44375498 128.63750091 -5.99411389 126.3871548 0.58984375 123.0859375 C1.24662109 122.75851563 1.90339844 122.43109375 2.58007812 122.09375 C7.12060265 119.74788869 11.17483146 117.00730497 15.27734375 113.9609375 C13.47669694 123.97854487 10.49297913 133.44650609 7.23193359 143.07275391 C6.32146142 145.82745616 5.49364014 148.59672434 4.671875 151.37890625 C0.18808508 165.47553978 -7.21638129 171.59202838 -19.72265625 178.9609375 C-21.05087639 179.79257939 -22.37656706 180.62828019 -23.69921875 181.46875 C-27.31672535 183.737819 -31.0024917 185.86560366 -34.72265625 187.9609375 C-35.33173828 188.30995117 -35.94082031 188.65896484 -36.56835938 189.01855469 C-45.95519947 194.37329785 -55.51857917 198.42102114 -65.72265625 201.9609375 C-53.47702494 201.05335199 -41.67040191 199.33553742 -29.68359375 196.63793945 C-28.71808594 196.42226318 -27.75257813 196.20658691 -26.7578125 195.984375 C-25.47982788 195.68926025 -25.47982788 195.68926025 -24.17602539 195.38818359 C-21.64283182 194.94703634 -19.28863863 194.88582998 -16.72265625 194.9609375 C-18.16696235 200.01600886 -19.89884052 204.96757235 -24.36264038 208.11862183 C-26.37072349 209.22391444 -28.40443942 210.21244433 -30.484375 211.17578125 C-31.25530991 211.54863754 -32.02624481 211.92149384 -32.82054138 212.3056488 C-35.34283056 213.51987816 -37.87583126 214.70956025 -40.41015625 215.8984375 C-42.1663541 216.73609187 -43.92204585 217.57480808 -45.67724609 218.41455078 C-51.01268423 220.95812611 -56.36480909 223.4649694 -61.72265625 225.9609375 C-62.53804871 226.34127136 -63.35344116 226.72160522 -64.19354248 227.11346436 C-69.40269075 229.54049474 -74.62058613 231.9477567 -79.84765625 234.3359375 C-80.51268158 234.64022675 -81.17770691 234.94451599 -81.86288452 235.25802612 C-90.37420431 239.1403244 -98.9510207 242.70733063 -107.72265625 245.9609375 C-84.3948789 244.34797457 -62.98896625 239.14710027 -40.87963867 231.6159668 C-38.72265625 230.9609375 -38.72265625 230.9609375 -36.72265625 230.9609375 C-38.40834366 236.15327096 -41.51544586 240.33266233 -44.59765625 244.7734375 C-45.17338379 245.60858887 -45.74911133 246.44374023 -46.34228516 247.30419922 C-51.53104919 254.78174848 -56.92730692 262.09051906 -62.46240234 269.31445312 C-63.55217736 270.73821189 -64.63245248 272.16923269 -65.7109375 273.6015625 C-78.27450991 290.12193817 -96.4832341 307.83327621 -117.72265625 311.9609375 C-126.57322435 313.05329373 -132.98988179 311.78896948 -141.09765625 308.4609375 C-152.34154485 303.92963352 -161.9254454 302.92507827 -173.66015625 307.0859375 C-179.09967316 309.45300907 -183.9858906 312.39918349 -188.72265625 315.9609375 C-187.40201172 315.54521484 -187.40201172 315.54521484 -186.0546875 315.12109375 C-184.89324219 314.75886719 -183.73179687 314.39664062 -182.53515625 314.0234375 C-181.38660156 313.66378906 -180.23804688 313.30414063 -179.0546875 312.93359375 C-168.16542367 309.75489891 -159.0421434 310.76002563 -148.46875 314.828125 C-128.50932036 322.11765582 -106.62343458 313.95243856 -87.90234375 306.60644531 C-85.72265625 305.9609375 -85.72265625 305.9609375 -83.72265625 306.9609375 C-96.35337681 316.51494408 -109.47605528 325.28784575 -122.72265625 333.9609375 C-123.84655762 334.702229 -123.84655762 334.702229 -124.99316406 335.45849609 C-153.42983672 354.14800737 -177.70786027 365.61259902 -211.72265625 360.4609375 C-214.1311784 360.10256941 -216.53998595 359.74620904 -218.94897461 359.39099121 C-220.43840728 359.17068696 -221.92751815 358.94819334 -223.41625977 358.7232666 C-227.05356427 358.15885527 -227.05356427 358.15885527 -230.72265625 357.9609375 C-209.5803298 369.97124423 -189.77449218 373.72687369 -165.72265625 375.9609375 C-165.72265625 376.2909375 -165.72265625 376.6209375 -165.72265625 376.9609375 C-168.20050052 377.30826986 -170.67902911 377.63854346 -173.16015625 377.9609375 C-173.82853516 378.05632812 -174.49691406 378.15171875 -175.18554688 378.25 C-190.95473029 380.24790559 -206.59640112 378.4522162 -222.28417969 376.66992188 C-237.88784175 374.91696939 -253.05046003 374.26991055 -268.72265625 375.9609375 C-268.72265625 376.2909375 -268.72265625 376.6209375 -268.72265625 376.9609375 C-268.14523682 377.10080078 -267.56781738 377.24066406 -266.97290039 377.38476562 C-243.87964757 383.07517 -226.43276781 392.72233645 -206.79248047 405.91357422 C-201.81321257 409.23440614 -196.76644646 412.44949317 -191.70898438 415.6496582 C-188.76997185 417.53213068 -186.03205785 419.31918659 -183.72265625 421.9609375 C-202.25719004 425.38108225 -221.52709244 423.11757261 -239.72265625 418.9609375 C-244.37747845 417.90488349 -249.03263253 416.85046562 -253.69006348 415.80596924 C-255.08005965 415.49412514 -256.46979308 415.18110747 -257.85925293 414.86688232 C-269.42580772 412.26394434 -280.87653978 410.61460834 -292.72265625 409.9609375 C-290.89264595 411.7909478 -288.79631093 413.33621787 -286.78515625 414.9609375 C-281.27328657 419.46740792 -275.94000384 424.11747149 -270.72265625 428.9609375 C-269.97242188 429.63382813 -269.2221875 430.30671875 -268.44921875 431 C-261.55598542 437.45787123 -256.71029146 445.01622343 -251.72265625 452.9609375 C-251.06265625 453.98960937 -250.40265625 455.01828125 -249.72265625 456.078125 C-246.61728488 461.03809316 -246.61728488 461.03809316 -245.72265625 462.9609375 C-246.05265625 463.6209375 -246.38265625 464.2809375 -246.72265625 464.9609375 C-247.09438965 464.55367432 -247.46612305 464.14641113 -247.84912109 463.72680664 C-266.66829108 443.17070556 -286.22440344 425.89989429 -315.359375 424.51757812 C-316.71482422 424.45860352 -316.71482422 424.45860352 -318.09765625 424.3984375 C-319.02449219 424.35525391 -319.95132813 424.31207031 -320.90625 424.26757812 C-323.17825919 424.16217564 -325.4503655 424.06005144 -327.72265625 423.9609375 C-319.13025254 415.27198993 -310.17470871 406.9868267 -300.640625 399.33984375 C-297.06668878 396.42615277 -293.57912408 393.42154513 -290.09765625 390.3984375 C-289.45747559 389.84325439 -288.81729492 389.28807129 -288.15771484 388.71606445 C-283.83527743 384.9563805 -279.56757331 381.14147993 -275.359375 377.25390625 C-273.72265625 375.9609375 -273.72265625 375.9609375 -271.72265625 375.9609375 C-271.39265625 374.9709375 -271.06265625 373.9809375 -270.72265625 372.9609375 C-269.2265625 371.453125 -269.2265625 371.453125 -267.28515625 369.8359375 C-264.09593872 367.12993475 -260.95107028 364.39028635 -257.84765625 361.5859375 C-256.58308594 360.44511719 -256.58308594 360.44511719 -255.29296875 359.28125 C-254.44476563 358.51554687 -253.5965625 357.74984375 -252.72265625 356.9609375 C-251.05624774 355.46065071 -249.38958272 353.96064878 -247.72265625 352.4609375 C-246.89507812 351.71585937 -246.0675 350.97078125 -245.21484375 350.203125 C-243.57525746 348.72801132 -241.9346597 347.25402098 -240.29296875 345.78125 C-234.24336638 340.35013733 -228.24159258 334.86833488 -222.25488281 329.36816406 C-219.24801566 326.60659901 -216.23744036 323.84907735 -213.22753906 321.09082031 C-210.70122511 318.77544451 -208.17585725 316.45905296 -205.65234375 314.140625 C-204.63413961 313.20570191 -203.61591057 312.27080593 -202.59765625 311.3359375 C-202.0975 310.87630615 -201.59734375 310.4166748 -201.08203125 309.94311523 C-197.98891002 307.10556112 -194.86343829 304.30799666 -191.72265625 301.5234375 C-187.37849734 297.63325018 -183.25222745 293.55971455 -179.18359375 289.38500977 C-176.56683058 286.72054519 -173.8829182 284.20818633 -171.046875 281.77734375 C-166.18087213 277.56491412 -161.64266588 273.03136901 -157.10424805 268.47290039 C-155.66240404 267.02569365 -154.21528509 265.58391724 -152.76757812 264.14257812 C-148.11770743 259.49569456 -143.61267945 254.78282758 -139.33422852 249.79077148 C-136.61158126 246.69938515 -133.66473224 243.84149106 -130.72265625 240.9609375 C-126.48252052 236.76461743 -122.34114949 232.56014614 -118.484375 228.00390625 C-116.63183081 225.85561221 -114.71400674 223.77466104 -112.78393555 221.69604492 C-108.00233058 216.5438107 -103.44075965 211.27926294 -99.03125 205.80078125 C-96.95167661 203.24265967 -94.83199616 200.72932669 -92.68798828 198.22558594 C-86.78304802 191.32381447 -81.15398591 184.24135588 -75.72265625 176.9609375 C-75.24634766 176.32655762 -74.77003906 175.69217773 -74.27929688 175.03857422 C-50.88092381 143.74741232 -33.48613237 110.06681434 -16.72265625 74.9609375 C-19.30657121 79.03886305 -21.84432864 83.136275 -24.2734375 87.30859375 C-34.81736947 105.36445397 -46.64086277 122.64312142 -59.72265625 138.9609375 C-60.47804688 139.90839844 -61.2334375 140.85585937 -62.01171875 141.83203125 C-67.04579686 148.06840636 -72.31276725 154.05012323 -77.72265625 159.9609375 C-78.98323853 161.34877441 -78.98323853 161.34877441 -80.26928711 162.76464844 C-87.64005447 170.84628094 -95.25949852 178.65330139 -103.00585938 186.37451172 C-104.98815869 188.3513976 -106.96498258 190.33364789 -108.94140625 192.31640625 C-120.15589877 203.53678232 -120.15589877 203.53678232 -126.09814453 208.58154297 C-128.65391582 210.7516824 -131.08186675 213.05077553 -133.53515625 215.3359375 C-138.17957222 219.6264862 -142.96024424 223.68966164 -147.88671875 227.65625 C-150.97853673 230.16888445 -154.00693198 232.74752135 -157.03515625 235.3359375 C-162.61564722 240.08809375 -168.33552258 244.63676868 -174.1171875 249.140625 C-177.86905026 252.06545874 -181.57766782 255.04269295 -185.28515625 258.0234375 C-190.41094163 262.1391997 -195.58429321 266.18274463 -200.80883789 270.17211914 C-204.99401789 273.37720515 -209.11456807 276.65780192 -213.22265625 279.9609375 C-218.39528736 284.11899047 -223.61011532 288.21192156 -228.88110352 292.24438477 C-234.61612719 296.63472879 -240.28830599 301.10373432 -245.9609375 305.57421875 C-247.70255413 306.94511432 -249.4465351 308.31293741 -251.19140625 309.6796875 C-257.86430718 314.90837597 -264.50375728 320.17620902 -271.11694336 325.48022461 C-275.87163635 329.29000772 -280.65669636 333.05938427 -285.453125 336.81640625 C-290.36554968 340.6690719 -295.24171481 344.56584136 -300.10839844 348.47607422 C-303.18593891 350.94530085 -306.27395653 353.39780929 -309.39453125 355.8125 C-315.87153677 360.82803185 -322.06352218 365.97975075 -328.07421875 371.55859375 C-331.61349566 374.76899979 -335.32169366 377.74583436 -339.0390625 380.74609375 C-341.66974182 382.91726577 -344.20208049 385.16335107 -346.72265625 387.4609375 C-353.11697288 393.28323859 -359.76815221 398.81783916 -366.72265625 403.9609375 C-366.63177734 403.40857422 -366.54089844 402.85621094 -366.44726562 402.28710938 C-362.95800195 380.68946189 -360.31219605 357.08478064 -373.91015625 338.2109375 C-379.31084973 331.67690792 -385.45481879 327.83176203 -393.72265625 325.9609375 C-396.5434458 325.74865955 -399.33363877 325.76870104 -402.16015625 325.8359375 C-403.2574707 325.84947266 -403.2574707 325.84947266 -404.37695312 325.86328125 C-406.15899923 325.88657597 -407.94087384 325.9224356 -409.72265625 325.9609375 C-403.10671993 321.55031329 -394.42248625 322.26816044 -386.72265625 322.9609375 C-375.22808476 325.40510519 -366.57533788 332.64188122 -359.72265625 341.9609375 C-355.08814462 350.00836394 -352.51787245 359.14708556 -349.72265625 367.9609375 C-349.06265625 367.9609375 -348.40265625 367.9609375 -347.72265625 367.9609375 C-337.98294683 351.5041871 -339.35243642 330.77637095 -343.6875 312.828125 C-348.55266847 294.12069868 -358.55736111 278.111742 -372.72265625 264.9609375 C-374.05598958 263.62760417 -375.38932292 262.29427083 -376.72265625 260.9609375 C-357.78859267 268.09502217 -343.03433963 285.6109946 -334.34765625 303.4609375 C-330.66322208 311.98836729 -328.20205784 320.80269915 -326.72265625 329.9609375 C-326.68825439 328.95571045 -326.65385254 327.9504834 -326.6184082 326.91479492 C-325.6152964 298.69145752 -323.30870654 270.69669107 -320.31640625 242.61767578 C-319.91821529 238.87315547 -319.54414285 235.12748749 -319.19140625 231.37841797 C-319.10669067 230.50374374 -319.0219751 229.62906952 -318.93469238 228.72789001 C-318.77758962 227.10003772 -318.62636763 225.47160221 -318.4822998 223.84254456 C-318.1201473 220.16458118 -317.72175532 217.12011666 -315.72265625 213.9609375 C-311.82818081 232.24563781 -310.06710774 250.84989142 -308.53515625 269.4609375 C-308.45128662 270.46825928 -308.36741699 271.47558105 -308.28100586 272.51342773 C-307.80278645 278.67559692 -307.62366273 284.78103428 -307.72265625 290.9609375 C-307.06265625 290.9609375 -306.40265625 290.9609375 -305.72265625 290.9609375 C-305.46355469 289.75566406 -305.20445312 288.55039062 -304.9375 287.30859375 C-303.24961394 279.7093952 -301.25396906 272.18409326 -299.32421875 264.64355469 C-297.65310545 258.01630765 -296.23451488 251.46636178 -295.22265625 244.7109375 C-293.98702076 237.84952629 -291.92749155 234.47951883 -286.72265625 229.9609375 C-285.70913026 229.02287959 -284.69898173 228.08116527 -283.69140625 227.13671875 C-281.45506465 225.04811946 -279.20267794 222.97914278 -276.9375 220.921875 C-273.51128331 217.79284558 -270.24280449 214.52504939 -267.015625 211.19140625 C-265.05543655 209.28464713 -263.05677577 207.49008307 -260.9921875 205.69921875 C-256.62101081 201.90417116 -252.41719599 197.9491884 -248.22265625 193.9609375 C-242.82786212 188.83146111 -237.36524558 183.81712323 -231.72265625 178.9609375 C-230.82643555 178.18943359 -230.82643555 178.18943359 -229.91210938 177.40234375 C-227.57757812 175.39834256 -225.23778687 173.4005487 -222.89746094 171.40332031 C-218.93619052 168.01738234 -215.02448306 164.58434459 -211.17578125 161.0703125 C-209.72265625 159.9609375 -209.72265625 159.9609375 -207.72265625 159.9609375 C-202.15362746 188.72524155 -205.14140925 218.18630853 -208.72265625 246.9609375 C-205.43729026 240.79475584 -202.78748729 234.8511335 -201.03515625 228.0859375 C-200.72336426 226.91877197 -200.72336426 226.91877197 -200.40527344 225.72802734 C-198.78421665 219.51740171 -197.54414606 213.32880848 -196.72265625 206.9609375 C-196.61977295 206.18242432 -196.51688965 205.40391113 -196.41088867 204.60180664 C-195.67885634 197.71329647 -195.76508493 190.95199895 -195.9765625 184.04296875 C-196.05171998 180.99426357 -196.12420083 177.94550191 -196.1965332 174.89672852 C-196.25578221 172.80864998 -196.33107241 170.72096705 -196.42211914 168.6340332 C-197.15229252 151.21223276 -197.15229252 151.21223276 -193.64331055 145.68652344 C-191.11961365 143.39929837 -188.66126588 141.66845829 -185.72265625 139.9609375 C-184.75714844 139.14882812 -183.79164063 138.33671875 -182.796875 137.5 C-182.00925781 136.86835938 -181.22164062 136.23671875 -180.41015625 135.5859375 C-176.93847431 132.78039061 -173.51382871 129.93438913 -170.13208008 127.02099609 C-164.64026593 122.30077301 -159.01358186 117.80993524 -153.22265625 113.4609375 C-152.55210205 112.95651123 -151.88154785 112.45208496 -151.19067383 111.93237305 C-147.79832707 109.40981493 -144.40310667 107.05596312 -140.72265625 104.9609375 C-136.47713556 118.85246836 -133.16952097 132.64916557 -130.72265625 146.9609375 C-130.47741459 148.39063157 -130.23213176 149.82031857 -129.98681641 151.25 C-129.71771195 152.82030196 -129.44867063 154.39061475 -129.1796875 155.9609375 C-129.04432587 156.75100189 -128.90896423 157.54106628 -128.76950073 158.35507202 C-128.08724647 162.34203802 -127.40934524 166.32965358 -126.74023438 170.31884766 C-126.61420334 171.06529541 -126.4881723 171.81174316 -126.35832214 172.58081055 C-126.11980961 173.99389418 -125.88315364 175.40729283 -125.64863586 176.82104492 C-125.17182649 179.63611994 -124.62767095 182.24589339 -123.72265625 184.9609375 C-122.77916613 171.89213362 -122.52541552 158.87390768 -122.53515625 145.7734375 C-122.53443115 144.77246033 -122.53370605 143.77148315 -122.53295898 142.74017334 C-122.53416063 127.65503456 -123.03907292 112.72150087 -124.28515625 97.6875 C-124.35581299 96.68952393 -124.42646973 95.69154785 -124.49926758 94.66333008 C-124.67953105 92.02083589 -124.67953105 92.02083589 -125.1081543 89.6706543 C-125.359375 87.63671875 -125.359375 87.63671875 -124.72265625 83.9609375 C-122.03188659 80.94356082 -118.8673678 78.78548448 -115.53515625 76.5234375 C-114.62854248 75.87818115 -113.72192871 75.2329248 -112.7878418 74.56811523 C-110.11578008 72.67432852 -107.42156028 70.81617806 -104.72265625 68.9609375 C-103.3250049 67.97392354 -101.92896362 66.98462233 -100.53515625 65.9921875 C-92.01042531 59.9609375 -92.01042531 59.9609375 -90.72265625 59.9609375 C-87.07905997 80.22766104 -83.81597228 100.18305305 -83.06347656 120.796875 C-82.88323287 125.59098551 -82.49807096 130.22514023 -81.72265625 134.9609375 C-69.67171949 122.91000074 -65.40359483 105.64952722 -65.25585938 89.06079102 C-65.26552734 87.79033936 -65.27519531 86.5198877 -65.28515625 85.2109375 C-65.28620361 84.54971893 -65.28725098 83.88850037 -65.28833008 83.20724487 C-65.33144642 69.89247829 -67.06530366 57.00917478 -69.72265625 43.9609375 C-61.13992142 38.15890181 -52.47526512 32.50372914 -43.72265625 26.9609375 C-37.37017692 22.93591482 -31.03598034 18.89242485 -24.78515625 14.7109375 C-24.20072754 14.32188232 -23.61629883 13.93282715 -23.01416016 13.53198242 C-19.86221913 11.4252606 -16.74498974 9.27723597 -13.6484375 7.08984375 C-12.97095459 6.61901367 -12.29347168 6.14818359 -11.59545898 5.66308594 C-10.29841973 4.76088046 -9.00955607 3.84676301 -7.73071289 2.91894531 C-5.05404325 1.07010783 -3.30237018 -0.04737977 0 0 Z " fill="#864735" transform="translate(564.72265625,107.0390625)"/>
<path d="M0 0 C0 3.5236976 -0.64517576 4.23635312 -2.7109375 6.9921875 C-3.29125732 7.77319824 -3.87157715 8.55420898 -4.46948242 9.35888672 C-5.09830322 10.1892041 -5.72712402 11.01952148 -6.375 11.875 C-7.33466675 13.15721436 -7.33466675 13.15721436 -8.3137207 14.46533203 C-10.20175781 16.98255709 -12.0998535 19.49190975 -14 22 C-14.92332691 23.22905412 -15.84652294 24.45820659 -16.76953125 25.6875 C-22.14369718 32.79983447 -27.81886565 39.62218251 -33.62207031 46.38378906 C-34.97655878 47.97250516 -36.31492451 49.57334309 -37.6484375 51.1796875 C-43.24977014 57.91014661 -49.07182412 64.37988392 -55.078125 70.75195312 C-58.05389097 73.90916824 -60.98876797 77.07955404 -63.8125 80.375 C-66.88801034 83.95405738 -70.20786722 87.24643834 -73.59375 90.53125 C-75.52890398 92.51666772 -77.33054395 94.52669012 -79.13305664 96.62866211 C-83.00763799 101.06987513 -87.10525611 105.24969751 -91.27734375 109.41015625 C-92.04752335 110.18129257 -92.81770294 110.95242889 -93.61122131 111.74693298 C-95.22941373 113.36580153 -96.84885212 114.98342551 -98.46948242 116.59985352 C-100.93067232 119.05568718 -103.38647809 121.51681365 -105.84179688 123.97851562 C-107.42415867 125.56021653 -109.00683067 127.14160717 -110.58984375 128.72265625 C-111.31405014 129.44888687 -112.03825653 130.17511749 -112.78440857 130.9233551 C-116.83074863 134.95141012 -120.97006353 138.80776867 -125.30458069 142.52476501 C-127.47796221 144.41588919 -129.49453136 146.43282463 -131.5 148.5 C-134.15292518 151.23455365 -136.88978006 153.8014701 -139.765625 156.296875 C-144.03632941 160.00292389 -148.14926299 163.85780718 -152.25 167.75 C-158.16184366 173.33783657 -164.10493938 178.88345292 -170.1171875 184.36328125 C-172.131747 186.20586615 -174.13705977 188.05530709 -176.1328125 189.91796875 C-182.22257793 195.59461865 -188.4102368 201.11151243 -194.76245117 206.49316406 C-198.83514563 209.95866092 -202.7830413 213.53407957 -206.6875 217.1875 C-211.38244013 221.57804059 -216.22849104 225.68780767 -221.2421875 229.71484375 C-225.37998974 233.14347592 -229.29671107 236.79892913 -233.23828125 240.44921875 C-237.81170939 244.67333272 -242.51670681 248.73432248 -247.25 252.77734375 C-248.4584254 253.80978808 -249.66675619 254.84234316 -250.875 255.875 C-251.78475586 256.65254639 -251.78475586 256.65254639 -252.71289062 257.44580078 C-257.13035473 261.23101237 -261.47390253 265.09011185 -265.78515625 268.99609375 C-271.68228271 274.33158912 -277.72801676 279.48869284 -283.81323242 284.60766602 C-286.66056298 287.00586528 -289.48951593 289.42000882 -292.28125 291.8828125 C-335.89259522 330.21864359 -335.89259522 330.21864359 -357 333 C-357 333.66 -357 334.32 -357 335 C-357.66 335 -358.32 335 -359 335 C-358.44169274 322.43808663 -349.36606714 313.46070591 -341 305 C-340.19916992 304.18547363 -339.39833984 303.37094727 -338.57324219 302.53173828 C-321.27750808 284.9739476 -321.27750808 284.9739476 -313.82495117 278.57543945 C-310.98314844 276.12217483 -308.24609186 273.55923389 -305.5 271 C-299.70076159 265.62570222 -293.80596386 260.39153511 -287.7890625 255.26171875 C-286.58837959 254.23716908 -285.38786379 253.21242354 -284.1875 252.1875 C-283.58131836 251.67018311 -282.97513672 251.15286621 -282.35058594 250.61987305 C-278.6092918 247.41497771 -274.93884617 244.14790722 -271.3125 240.8125 C-266.9847306 236.8443266 -262.52122506 233.10507809 -257.953125 229.41796875 C-254.56641785 226.64499027 -251.25044929 223.79775092 -247.9375 220.9375 C-243.22261255 216.8719569 -238.44487779 212.91787556 -233.55859375 209.05859375 C-230.49275333 206.5918794 -227.49562613 204.05113904 -224.5 201.5 C-219.98545886 197.65898876 -215.42324209 193.89692525 -210.77734375 190.21484375 C-207.24636644 187.39900109 -203.74983454 184.54188683 -200.25 181.6875 C-195.10044361 177.49196924 -189.92076425 173.34064281 -184.6875 169.25 C-178.72010492 164.58528133 -172.84518582 159.81726939 -167 155 C-165.29212417 153.60360693 -163.58377851 152.20778832 -161.875 150.8125 C-156.32755978 146.27440778 -150.7957887 141.71737796 -145.26586914 137.15795898 C-141.29252914 133.88306284 -137.30892432 130.62172581 -133.3125 127.375 C-128.5390125 123.47797986 -123.866 119.47117207 -119.19946289 115.44750977 C-115.59397866 112.34513939 -111.94773616 109.30515935 -108.25 106.3125 C-103.87060596 102.75904431 -99.68604235 99.037352 -95.51953125 95.23828125 C-92.96795083 92.97152842 -90.34828468 90.82459913 -87.6875 88.6875 C-82.23686513 84.27912534 -77.12369162 79.56689321 -72.00390625 74.78515625 C-69.63105822 72.57212586 -67.21419982 70.42397141 -64.75 68.3125 C-61.05673155 65.12356443 -57.66046403 61.67850233 -54.23828125 58.203125 C-51.51178592 55.5194542 -48.63198141 53.05553186 -45.72265625 50.57421875 C-43.54675637 48.58581138 -41.82042464 46.31053896 -40 44 C-39.34 44 -38.68 44 -38 44 C-37.78730469 43.45859375 -37.57460938 42.9171875 -37.35546875 42.359375 C-35.50972029 39.14660247 -32.95999593 36.79500181 -30.3125 34.25 C-25.64297162 29.66728888 -21.23713922 24.98781349 -17 20 C-15.94398497 18.78274546 -14.8865496 17.56672245 -13.828125 16.3515625 C-12.65623433 15.00522197 -11.4843595 13.65886766 -10.3125 12.3125 C-9.47344116 11.34896606 -9.47344116 11.34896606 -8.61743164 10.3659668 C-5.66845081 6.96710398 -2.78126907 3.5391818 0 0 Z " fill="#864735" transform="translate(506,247)"/>
<path d="M0 0 C-4.455 3.465 -4.455 3.465 -9 7 C-9.99 6.34 -10.98 5.68 -12 5 C-11.67 4.01 -11.34 3.02 -11 2 C-9.00390625 1.015625 -9.00390625 1.015625 -6.5625 0.25 C-5.75941406 -0.01296875 -4.95632813 -0.2759375 -4.12890625 -0.546875 C-2 -1 -2 -1 0 0 Z " fill="#8F5340" transform="translate(481,414)"/>
<path d="M0 0 C0.66 0.33 1.32 0.66 2 1 C1.01 2.32 0.02 3.64 -1 5 C1.97 5 4.94 5 8 5 C8 5.33 8 5.66 8 6 C3.38 6 -1.24 6 -6 6 C-4 4 -2 2 0 0 Z " fill="#925A47" transform="translate(243,525)"/>
<path d="M0 0 C4.30764815 1.56641751 8.06171464 3.68336156 12 6 C11.01 6.495 11.01 6.495 10 7 C9.67 7.66 9.34 8.32 9 9 C7.49704815 7.69088122 5.99770689 6.37761608 4.5 5.0625 C3.6646875 4.33160156 2.829375 3.60070312 1.96875 2.84765625 C1.3190625 2.23792969 0.669375 1.62820313 0 1 C0 0.67 0 0.34 0 0 Z " fill="#8F5644" transform="translate(188,368)"/>
<path d="M0 0 C4.83372821 0.01638552 9.41342223 0.3215333 14.1796875 1.1328125 C14.1796875 1.4628125 14.1796875 1.7928125 14.1796875 2.1328125 C12.24294565 2.32798804 10.30524741 2.51369123 8.3671875 2.6953125 C7.28824219 2.79972656 6.20929688 2.90414063 5.09765625 3.01171875 C1.92844234 3.14323901 -0.00401543 2.54096104 -2.8203125 1.1328125 C-1.8203125 0.1328125 -1.8203125 0.1328125 0 0 Z " fill="#8D5645" transform="translate(384.8203125,481.8671875)"/>
<path d="M0 0 C0 3.83764027 -1.26535335 5.11486085 -3.5 8.1875 C-4.1496875 9.08855469 -4.799375 9.98960937 -5.46875 10.91796875 C-5.9740625 11.60503906 -6.479375 12.29210937 -7 13 C-7.74609375 11.296875 -7.74609375 11.296875 -8 9 C-6.34765625 6.640625 -6.34765625 6.640625 -4.0625 4.25 C-3.31097656 3.45078125 -2.55945313 2.6515625 -1.78515625 1.828125 C-1.19605469 1.22484375 -0.60695313 0.6215625 0 0 Z " fill="#8D4E3E" transform="translate(506,247)"/>
<path d="M0 0 C0.99 0 1.98 0 3 0 C6.22265625 5.2734375 6.22265625 5.2734375 7 7 C6.67 7.66 6.34 8.32 6 9 C4.99406757 7.8803014 3.9954151 6.7540588 3 5.625 C2.443125 4.99851562 1.88625 4.37203125 1.3125 3.7265625 C0 2 0 2 0 0 Z " fill="#8B513C" transform="translate(312,563)"/>
<path d="M0 0 C0 3 0 3 0 3 Z " fill="#945543" transform="translate(508,244)"/>
<path d="" fill="#A87966" transform="translate(0,0)"/>
<path d="" fill="#A26858" transform="translate(0,0)"/>
<path d="" fill="#A8796A" transform="translate(0,0)"/>
<path d="" fill="#A77A68" transform="translate(0,0)"/>
<path d="" fill="#A98071" transform="translate(0,0)"/>
<path d="" fill="#8E4B3A" transform="translate(0,0)"/>
<path d="" fill="#9B6354" transform="translate(0,0)"/>
<path d="" fill="#A26F5F" transform="translate(0,0)"/>
</svg>
