<?xml version="1.0" encoding="UTF-8"?>
<svg version="1.1" xmlns="http://www.w3.org/2000/svg" width="736" height="1312">
<path d="M0 0 C14.86189637 12.01545225 21.86432958 31.52305583 24.75 50.0625 C25.59417623 63.35827565 24.41061067 76.06009502 22.41357422 89.21240234 C22.15979657 90.92292962 21.92513029 92.63659062 21.72314453 94.35400391 C20.80240436 102.08427272 18.77467533 106.9607024 12.76196289 111.83911133 C9.28576089 114.41281814 5.68106349 116.73226791 2 119 C0.95271729 119.66201416 0.95271729 119.66201416 -0.11572266 120.33740234 C-6.25570561 124.21000122 -12.46965267 127.81422265 -19 131 C-12.32341215 130.3580204 -6.74412903 128.16157584 -0.8125 125.1875 C-0.14798828 124.85621094 0.51652344 124.52492188 1.20117188 124.18359375 C4.61803109 122.41917787 7.76080415 120.51439388 10.86328125 118.23828125 C14 116 14 116 16 116 C13.8281647 126.05423054 10.86353579 135.72000803 7.5 145.4375 C7.12045166 146.53819824 6.74090332 147.63889648 6.34985352 148.77294922 C5.26591452 151.86169574 4.14093169 154.93192016 3 158 C2.70826904 158.84457764 2.41653809 159.68915527 2.1159668 160.55932617 C-0.25631509 166.78403164 -3.71374598 169.79201003 -9.1875 173.4375 C-9.98269043 173.98752686 -10.77788086 174.53755371 -11.59716797 175.10424805 C-28.25956717 186.47336184 -45.97502548 196.22398168 -65 203 C-52.75436869 202.09241449 -40.94774566 200.37459992 -28.9609375 197.67700195 C-27.99542969 197.46132568 -27.02992188 197.24564941 -26.03515625 197.0234375 C-24.75717163 196.72832275 -24.75717163 196.72832275 -23.45336914 196.42724609 C-20.92017557 195.98609884 -18.56598238 195.92489248 -16 196 C-17.4443061 201.05507136 -19.17618427 206.00663485 -23.63998413 209.15768433 C-25.64806724 210.26297694 -27.68178317 211.25150683 -29.76171875 212.21484375 C-30.53265366 212.58770004 -31.30358856 212.96055634 -32.09788513 213.3447113 C-34.62017431 214.55894066 -37.15317501 215.74862275 -39.6875 216.9375 C-41.44369785 217.77515437 -43.1993896 218.61387058 -44.95458984 219.45361328 C-50.29002798 221.99718861 -55.64215284 224.5040319 -61 227 C-61.81539246 227.38033386 -62.63078491 227.76066772 -63.47088623 228.15252686 C-68.6800345 230.57955724 -73.89792988 232.9868192 -79.125 235.375 C-79.79002533 235.67928925 -80.45505066 235.98357849 -81.14022827 236.29708862 C-89.65154806 240.1793869 -98.22836445 243.74639313 -107 247 C-83.67222265 245.38703707 -62.26631 240.18616277 -40.15698242 232.6550293 C-38 232 -38 232 -36 232 C-37.68568741 237.19233346 -40.79278961 241.37172483 -43.875 245.8125 C-44.45072754 246.64765137 -45.02645508 247.48280273 -45.61962891 248.34326172 C-50.80839294 255.82081098 -56.20465067 263.12958156 -61.73974609 270.35351562 C-62.82952111 271.77727439 -63.90979623 273.20829519 -64.98828125 274.640625 C-77.55185366 291.16100067 -95.76057785 308.87233871 -117 313 C-126.82201573 314.2122544 -134.1806972 312.34062248 -143.16235352 308.578125 C-154.61083614 303.84233391 -163.78692671 304.80628836 -175.1875 309.3125 C-179.96934677 311.38566195 -183.928149 313.76102761 -188 317 C-186.81857422 316.58427734 -186.81857422 316.58427734 -185.61328125 316.16015625 C-172.17972084 311.69290125 -161.06713461 310.81699827 -147.6953125 315.87109375 C-127.7043082 323.09967489 -105.93131897 315.00348494 -87.1796875 307.64550781 C-85 307 -85 307 -83 308 C-95.63072056 317.55400658 -108.75339903 326.32690825 -122 335 C-123.12390137 335.7412915 -123.12390137 335.7412915 -124.27050781 336.49755859 C-147.61172827 351.83817204 -172.49385094 366.90575529 -201.19140625 362.90625 C-202.02212143 362.79526978 -202.85283661 362.68428955 -203.70872498 362.56994629 C-206.32743013 362.21882119 -208.94494129 361.8595614 -211.5625 361.5 C-213.35214053 361.25857271 -215.14185357 361.01768238 -216.93164062 360.77734375 C-221.28862251 360.19109296 -225.64455411 359.59755078 -230 359 C-208.77103351 370.90633566 -189.11333612 374.76022372 -165 377 C-165 377.33 -165 377.66 -165 378 C-167.47784427 378.34733236 -169.95637286 378.67760596 -172.4375 379 C-173.10587891 379.09539062 -173.77425781 379.19078125 -174.46289062 379.2890625 C-190.23207404 381.28696809 -205.87374487 379.4912787 -221.56152344 377.70898438 C-237.1651855 375.95603189 -252.32780378 375.30897305 -268 377 C-264.85813988 378.83069015 -261.62602018 379.67022754 -258.11523438 380.54394531 C-238.44386603 385.50767057 -222.75477057 395.74632947 -206.06982422 406.95263672 C-201.09055632 410.27346864 -196.04379021 413.48855567 -190.98632812 416.6887207 C-188.0473156 418.57119318 -185.3094016 420.35824909 -183 423 C-201.53453379 426.42014475 -220.80443619 424.15663511 -239 420 C-243.6548222 418.94394599 -248.30997628 417.88952812 -252.96740723 416.84503174 C-254.3574034 416.53318764 -255.74713683 416.22016997 -257.13659668 415.90594482 C-268.70315147 413.30300684 -280.15388353 411.65367084 -292 411 C-290.1699897 412.8300103 -288.07365468 414.37528037 -286.0625 416 C-280.55063032 420.50647042 -275.21734759 425.15653399 -270 430 C-269.24976563 430.67289063 -268.49953125 431.34578125 -267.7265625 432.0390625 C-259.11983277 440.1022093 -250.35676616 451.93645443 -246 463 C-246.33 463.66 -246.66 464.32 -247 465 C-247.73863281 464.17757813 -248.47726562 463.35515625 -249.23828125 462.5078125 C-264.85448564 445.25285459 -283.99361339 427.8107202 -308.49536133 425.79467773 C-309.3489624 425.75802002 -310.20256348 425.7213623 -311.08203125 425.68359375 C-312.01337891 425.64169922 -312.94472656 425.59980469 -313.90429688 425.55664062 C-315.34385742 425.49766602 -315.34385742 425.49766602 -316.8125 425.4375 C-317.79154297 425.39431641 -318.77058594 425.35113281 -319.77929688 425.30664062 C-322.18607027 425.2009774 -324.59293983 425.09887673 -327 425 C-318.40759629 416.31105243 -309.45205246 408.0258892 -299.91796875 400.37890625 C-296.34403253 397.46521527 -292.85646783 394.46060763 -289.375 391.4375 C-288.73481934 390.88231689 -288.09463867 390.32713379 -287.43505859 389.75512695 C-283.11262118 385.995443 -278.84491706 382.18054243 -274.63671875 378.29296875 C-273 377 -273 377 -271 377 C-270.67 376.01 -270.34 375.02 -270 374 C-268.50390625 372.4921875 -268.50390625 372.4921875 -266.5625 370.875 C-263.37328247 368.16899725 -260.22841403 365.42934885 -257.125 362.625 C-255.86042969 361.48417969 -255.86042969 361.48417969 -254.5703125 360.3203125 C-253.72210938 359.55460937 -252.87390625 358.78890625 -252 358 C-250.33359149 356.49971321 -248.66692647 354.99971128 -247 353.5 C-246.17242187 352.75492188 -245.34484375 352.00984375 -244.4921875 351.2421875 C-242.85260121 349.76707382 -241.21200345 348.29308348 -239.5703125 346.8203125 C-233.52071013 341.38919983 -227.51893633 335.90739738 -221.53222656 330.40722656 C-218.52535941 327.64566151 -215.51478411 324.88813985 -212.50488281 322.12988281 C-209.97856886 319.81450701 -207.453201 317.49811546 -204.9296875 315.1796875 C-203.91148998 314.24475721 -202.89326098 313.30986118 -201.875 312.375 C-201.37556885 311.91609375 -200.8761377 311.4571875 -200.36157227 310.984375 C-197.24594168 308.12646652 -194.09902987 305.30691909 -190.9375 302.5 C-186.3914402 298.42824821 -182.09651181 294.13888748 -177.8359375 289.7734375 C-175.73511906 287.71891809 -173.63765754 285.80756826 -171.41015625 283.90234375 C-166.24583783 279.4280641 -161.44350727 274.59367415 -156.62475586 269.75512695 C-155.04460356 268.16954204 -153.45908024 266.58946558 -151.87304688 265.00976562 C-150.86426194 264.00032108 -149.85578662 262.99056701 -148.84765625 261.98046875 C-147.94023682 261.07192139 -147.03281738 260.16337402 -146.09790039 259.22729492 C-143.97253466 257.18483415 -143.97253466 257.18483415 -143 255 C-142.34 255 -141.68 255 -141 255 C-140.74114014 254.41444336 -140.48228027 253.82888672 -140.21557617 253.22558594 C-138.90778276 250.8311604 -137.50263899 249.28906671 -135.55078125 247.390625 C-134.52500977 246.38128906 -134.52500977 246.38128906 -133.47851562 245.3515625 C-132.76373047 244.65804687 -132.04894531 243.96453125 -131.3125 243.25 C-126.54384339 238.6006703 -121.94476641 233.90441105 -117.60131836 228.85302734 C-115.33967496 226.23587939 -112.98262128 223.71857991 -110.625 221.1875 C-106.33569297 216.54442811 -102.27321381 211.76558383 -98.30859375 206.83984375 C-96.22902036 204.28172217 -94.10933991 201.76838919 -91.96533203 199.26464844 C-86.06039177 192.36287697 -80.43132966 185.28041838 -75 178 C-74.52369141 177.36562012 -74.04738281 176.73124023 -73.55664062 176.07763672 C-50.15826756 144.78647482 -32.76347612 111.10587684 -16 76 C-18.58391496 80.07792555 -21.12167239 84.1753375 -23.55078125 88.34765625 C-34.09471322 106.40351647 -45.91820652 123.68218392 -59 140 C-59.75539063 140.94746094 -60.51078125 141.89492188 -61.2890625 142.87109375 C-66.32314061 149.10746886 -71.590111 155.08918573 -77 161 C-78.26058228 162.38783691 -78.26058228 162.38783691 -79.54663086 163.80371094 C-86.91739822 171.88534344 -94.53684227 179.69236389 -102.28320312 187.41357422 C-104.26550244 189.3904601 -106.24232633 191.37271039 -108.21875 193.35546875 C-119.43324252 204.57584482 -119.43324252 204.57584482 -125.37548828 209.62060547 C-127.93125957 211.7907449 -130.3592105 214.08983803 -132.8125 216.375 C-137.45691597 220.6655487 -142.23758799 224.72872414 -147.1640625 228.6953125 C-150.25588048 231.20794695 -153.28427573 233.78658385 -156.3125 236.375 C-161.89299097 241.12715625 -167.61286633 245.67583118 -173.39453125 250.1796875 C-177.14639401 253.10452124 -180.85501157 256.08175545 -184.5625 259.0625 C-189.68828538 263.1782622 -194.86163696 267.22180713 -200.08618164 271.21118164 C-204.27136164 274.41626765 -208.39191182 277.69686442 -212.5 281 C-217.67263111 285.15805297 -222.88745907 289.25098406 -228.15844727 293.28344727 C-233.89347094 297.67379129 -239.56564974 302.14279682 -245.23828125 306.61328125 C-246.97989788 307.98417682 -248.72387885 309.35199991 -250.46875 310.71875 C-257.14165093 315.94743847 -263.78110103 321.21527152 -270.39428711 326.51928711 C-275.1489801 330.32907022 -279.93404011 334.09844677 -284.73046875 337.85546875 C-289.64289343 341.7081344 -294.51905856 345.60490386 -299.38574219 349.51513672 C-302.46328266 351.98436335 -305.55130028 354.43687179 -308.671875 356.8515625 C-315.15554087 361.87225186 -321.35152311 367.03181619 -327.37109375 372.61328125 C-330.79628208 375.72292474 -334.37921687 378.60888727 -337.9765625 381.515625 C-347.19338217 389.08913574 -356.12098486 397.03535498 -365 405 C-366.33054561 401.00836316 -365.34859304 397.82769883 -364.5625 393.8125 C-361.42211802 376.2560338 -361.7829329 357.19450722 -371.49609375 341.59765625 C-377.06767966 333.86434647 -383.66324877 329.11269553 -393 327 C-395.82078955 326.78772205 -398.61098252 326.80776354 -401.4375 326.875 C-402.53481445 326.88853516 -402.53481445 326.88853516 -403.65429688 326.90234375 C-405.43634298 326.92563847 -407.21821759 326.9614981 -409 327 C-402.38406368 322.58937579 -393.69983 323.30722294 -386 324 C-374.50542851 326.44416769 -365.85268163 333.68094372 -359 343 C-354.36548837 351.04742644 -351.7952162 360.18614806 -349 369 C-348.34 369 -347.68 369 -347 369 C-337.21756759 352.47106248 -338.6643137 332.01953525 -343 314 C-347.86792652 295.25962561 -357.85733322 279.12979675 -372 266 C-373.33333333 264.66666667 -374.66666667 263.33333333 -376 262 C-357.06593642 269.13408467 -342.31168338 286.6500571 -333.625 304.5 C-329.94056583 313.02742979 -327.47940159 321.84176165 -326 331 C-325.96559814 329.99477295 -325.93119629 328.9895459 -325.89575195 327.95385742 C-324.89264015 299.73052002 -322.58605029 271.73575357 -319.59375 243.65673828 C-319.19555904 239.91221797 -318.8214866 236.16654999 -318.46875 232.41748047 C-318.38403442 231.54280624 -318.29931885 230.66813202 -318.21203613 229.76695251 C-318.05493337 228.13910022 -317.90371138 226.51066471 -317.75964355 224.88160706 C-317.39749105 221.20364368 -316.99909907 218.15917916 -315 215 C-311.10552456 233.28470031 -309.34445149 251.88895392 -307.8125 270.5 C-307.72863037 271.50732178 -307.64476074 272.51464355 -307.55834961 273.55249023 C-307.0801302 279.71465942 -306.90100648 285.82009678 -307 292 C-306.34 292 -305.68 292 -305 292 C-304.74089844 290.79472656 -304.48179687 289.58945312 -304.21484375 288.34765625 C-302.52695769 280.7484577 -300.53131281 273.22315576 -298.6015625 265.68261719 C-296.93046862 259.05544715 -295.51116312 252.50550099 -294.5 245.75 C-293.27543532 238.917074 -291.1972741 235.49022444 -286 231 C-284.57593659 229.68223992 -283.15194436 228.36440194 -281.72924805 227.04516602 C-280.18236055 225.62026585 -278.62143564 224.21204941 -277.05859375 222.8046875 C-273.41678598 219.50019003 -269.9746019 216.00934238 -266.546875 212.484375 C-263.83467907 209.83873602 -261.00694 207.37311475 -258.14550781 204.89160156 C-254.51039685 201.68668125 -251.0116404 198.33893678 -247.5 195 C-242.10520587 189.87052361 -236.64258933 184.85618573 -231 180 C-230.1037793 179.22849609 -230.1037793 179.22849609 -229.18945312 178.44140625 C-226.85492187 176.43740506 -224.51513062 174.4396112 -222.17480469 172.44238281 C-218.21353427 169.05644484 -214.30182681 165.62340709 -210.453125 162.109375 C-209 161 -209 161 -207 161 C-201.68693077 189.83500678 -204.32688309 219.16102191 -208 248 C-204.71463401 241.83381834 -202.06483104 235.890196 -200.3125 229.125 C-200.00070801 227.95783447 -200.00070801 227.95783447 -199.68261719 226.76708984 C-198.0615604 220.55646421 -196.82148981 214.36787098 -196 208 C-195.8971167 207.22148682 -195.7942334 206.44297363 -195.68823242 205.64086914 C-194.95620009 198.75235897 -195.04242868 191.99106145 -195.25390625 185.08203125 C-195.32906373 182.03332607 -195.40154458 178.98456441 -195.47387695 175.93579102 C-195.53312596 173.84771248 -195.60841616 171.76002955 -195.69946289 169.6730957 C-196.42963627 152.25129526 -196.42963627 152.25129526 -192.9206543 146.72558594 C-190.3969574 144.43836087 -187.93860963 142.70752079 -185 141 C-184.03449219 140.18789063 -183.06898438 139.37578125 -182.07421875 138.5390625 C-181.28660156 137.90742188 -180.49898437 137.27578125 -179.6875 136.625 C-176.21581806 133.81945311 -172.79117246 130.97345163 -169.40942383 128.06005859 C-163.91760968 123.33983551 -158.29092561 118.84899774 -152.5 114.5 C-151.8294458 113.99557373 -151.1588916 113.49114746 -150.46801758 112.97143555 C-147.07567082 110.44887743 -143.68045042 108.09502562 -140 106 C-134.52110495 123.07783243 -131.33528329 140.40315707 -128.33392334 158.04101562 C-127.63406674 162.14677279 -126.92124486 166.25029893 -126.20947266 170.35400391 C-125.87082437 172.31398235 -125.53565314 174.27456596 -125.20458984 176.23583984 C-125.05844238 177.09387207 -124.91229492 177.9519043 -124.76171875 178.8359375 C-124.63756592 179.57376465 -124.51341309 180.3115918 -124.38549805 181.07177734 C-124.00031281 183.20590692 -124.00031281 183.20590692 -123 186 C-122.05650988 172.93119612 -121.80275927 159.91297018 -121.8125 146.8125 C-121.8117749 145.81152283 -121.8110498 144.81054565 -121.81030273 143.77923584 C-121.81150438 128.69409706 -122.31641667 113.76056337 -123.5625 98.7265625 C-123.63315674 97.72858643 -123.70381348 96.73061035 -123.77661133 95.70239258 C-123.9568748 93.05989839 -123.9568748 93.05989839 -124.38549805 90.7097168 C-124.63671875 88.67578125 -124.63671875 88.67578125 -124 85 C-121.30923034 81.98262332 -118.14471155 79.82454698 -114.8125 77.5625 C-113.90588623 76.91724365 -112.99927246 76.2719873 -112.06518555 75.60717773 C-109.39312383 73.71339102 -106.69890403 71.85524056 -104 70 C-102.60234865 69.01298604 -101.20630737 68.02368483 -99.8125 67.03125 C-91.28776906 61 -91.28776906 61 -90 61 C-85.39066697 86.46722345 -82.68611844 111.08089984 -82 137 C-81.34 137 -80.68 137 -80 137 C-79.72800781 136.4328125 -79.45601563 135.865625 -79.17578125 135.28125 C-77.9632816 132.92875899 -76.60063918 130.73715965 -75.1875 128.5 C-66.96819185 114.83464659 -64.60930252 102.21444477 -64.625 86.4375 C-64.6235498 85.76878876 -64.62209961 85.10007751 -64.62060547 84.41110229 C-64.62378718 71.02745218 -66.32846532 58.11787474 -69 45 C-60.41726982 39.19796745 -51.7526969 33.54264663 -43 28 C-36.09260301 23.62478648 -29.22754002 19.20262349 -22.44311523 14.63916016 C-15.02862749 9.65750266 -7.5103832 4.83532627 0 0 Z " fill="#864735" transform="translate(565,367)"/>
<path d="M0 0 C0 3.5236976 -0.64517576 4.23635312 -2.7109375 6.9921875 C-3.29125732 7.77319824 -3.87157715 8.55420898 -4.46948242 9.35888672 C-5.09830322 10.1892041 -5.72712402 11.01952148 -6.375 11.875 C-7.33466675 13.15721436 -7.33466675 13.15721436 -8.3137207 14.46533203 C-10.20175781 16.98255709 -12.0998535 19.49190975 -14 22 C-14.92332691 23.22905412 -15.84652294 24.45820659 -16.76953125 25.6875 C-22.14369718 32.79983447 -27.81886565 39.62218251 -33.62207031 46.38378906 C-34.97655878 47.97250516 -36.31492451 49.57334309 -37.6484375 51.1796875 C-43.2510897 57.91173216 -49.07435773 64.38318162 -55.08251953 70.75634766 C-58.01710956 73.86952961 -60.9106634 76.9937096 -63.6875 80.25 C-67.27681369 84.42996024 -71.21749844 88.24767495 -75.15625 92.09375 C-77.27512197 94.20708073 -79.24017215 96.41155052 -81.18774414 98.68334961 C-84.90834068 102.95168426 -88.83124317 106.9759451 -92.83984375 110.97265625 C-93.92852501 112.0627726 -93.92852501 112.0627726 -95.03919983 113.1749115 C-96.56323556 114.69962296 -98.08851569 116.2230915 -99.61499023 117.74536133 C-101.93132463 120.05633891 -104.24227078 122.37260771 -106.55273438 124.68945312 C-108.04395034 126.1800082 -109.53547653 127.670253 -111.02734375 129.16015625 C-111.70780258 129.84263931 -112.38826141 130.52512238 -113.08934021 131.22828674 C-117.02874576 135.14880636 -121.07172016 138.88905628 -125.28919983 142.50938416 C-127.46677922 144.40670355 -129.48946653 146.42760396 -131.5 148.5 C-134.15292518 151.23455365 -136.88978006 153.8014701 -139.765625 156.296875 C-144.03632941 160.00292389 -148.14926299 163.85780718 -152.25 167.75 C-158.16184366 173.33783657 -164.10493938 178.88345292 -170.1171875 184.36328125 C-172.131747 186.20586615 -174.13705977 188.05530709 -176.1328125 189.91796875 C-182.22257793 195.59461865 -188.4102368 201.11151243 -194.76245117 206.49316406 C-198.83514563 209.95866092 -202.7830413 213.53407957 -206.6875 217.1875 C-211.38244013 221.57804059 -216.22849104 225.68780767 -221.2421875 229.71484375 C-225.37998974 233.14347592 -229.29671107 236.79892913 -233.23828125 240.44921875 C-237.81170939 244.67333272 -242.51670681 248.73432248 -247.25 252.77734375 C-248.4584254 253.80978808 -249.66675619 254.84234316 -250.875 255.875 C-251.78475586 256.65254639 -251.78475586 256.65254639 -252.71289062 257.44580078 C-257.13035473 261.23101237 -261.47390253 265.09011185 -265.78515625 268.99609375 C-271.68228271 274.33158912 -277.72801676 279.48869284 -283.81323242 284.60766602 C-286.66056298 287.00586528 -289.48951593 289.42000882 -292.28125 291.8828125 C-334.92805403 329.37077962 -334.92805403 329.37077962 -359 334 C-357.39613236 321.7749644 -349.33774198 313.43206032 -341 305 C-340.19916992 304.18547363 -339.39833984 303.37094727 -338.57324219 302.53173828 C-321.27750808 284.9739476 -321.27750808 284.9739476 -313.82495117 278.57543945 C-310.98314844 276.12217483 -308.24609186 273.55923389 -305.5 271 C-299.70076159 265.62570222 -293.80596386 260.39153511 -287.7890625 255.26171875 C-286.58837959 254.23716908 -285.38786379 253.21242354 -284.1875 252.1875 C-283.58131836 251.67018311 -282.97513672 251.15286621 -282.35058594 250.61987305 C-278.6092918 247.41497771 -274.93884617 244.14790722 -271.3125 240.8125 C-266.9847306 236.8443266 -262.52122506 233.10507809 -257.953125 229.41796875 C-254.56641785 226.64499027 -251.25044929 223.79775092 -247.9375 220.9375 C-243.22261255 216.8719569 -238.44487779 212.91787556 -233.55859375 209.05859375 C-230.49275333 206.5918794 -227.49562613 204.05113904 -224.5 201.5 C-219.98545886 197.65898876 -215.42324209 193.89692525 -210.77734375 190.21484375 C-207.24636644 187.39900109 -203.74983454 184.54188683 -200.25 181.6875 C-195.10044361 177.49196924 -189.92076425 173.34064281 -184.6875 169.25 C-178.72010492 164.58528133 -172.84518582 159.81726939 -167 155 C-165.29212417 153.60360693 -163.58377851 152.20778832 -161.875 150.8125 C-156.32755978 146.27440778 -150.7957887 141.71737796 -145.26586914 137.15795898 C-141.29252914 133.88306284 -137.30892432 130.62172581 -133.3125 127.375 C-128.5390125 123.47797986 -123.866 119.47117207 -119.19946289 115.44750977 C-115.59397866 112.34513939 -111.94773616 109.30515935 -108.25 106.3125 C-103.87060596 102.75904431 -99.68604235 99.037352 -95.51953125 95.23828125 C-92.96795083 92.97152842 -90.34828468 90.82459913 -87.6875 88.6875 C-82.23686513 84.27912534 -77.12369162 79.56689321 -72.00390625 74.78515625 C-69.63105822 72.57212586 -67.21419982 70.42397141 -64.75 68.3125 C-61.13382566 65.19013098 -57.79448979 61.83432024 -54.46875 58.40625 C-52.41807066 56.40748659 -50.33136805 54.54653901 -48.16015625 52.68359375 C-44.15043995 49.20179079 -40.52725205 45.47043685 -36.9375 41.5625 C-35.63175147 40.15342242 -34.32575448 38.74457504 -33.01953125 37.3359375 C-32.35775879 36.62018555 -31.69598633 35.90443359 -31.01416016 35.16699219 C-29.02633746 33.02833592 -27.02249371 30.90613612 -25.01171875 28.7890625 C-18.01587788 21.41487958 -11.31135459 13.97438971 -5 6 C-3.34358557 3.99115697 -1.67214151 1.99578181 0 0 Z " fill="#864735" transform="translate(507,508)"/>
<path d="M0 0 C-4.455 3.465 -4.455 3.465 -9 7 C-9.99 6.34 -10.98 5.68 -12 5 C-11.67 4.01 -11.34 3.02 -11 2 C-9.00390625 1.015625 -9.00390625 1.015625 -6.5625 0.25 C-5.75941406 -0.01296875 -4.95632813 -0.2759375 -4.12890625 -0.546875 C-2 -1 -2 -1 0 0 Z " fill="#8F5340" transform="translate(482,675)"/>
<path d="M0 0 C0.66 0.33 1.32 0.66 2 1 C1.01 2.32 0.02 3.64 -1 5 C1.97 5 4.94 5 8 5 C8 5.33 8 5.66 8 6 C3.38 6 -1.24 6 -6 6 C-4 4 -2 2 0 0 Z " fill="#925A47" transform="translate(244,786)"/>
<path d="M0 0 C4.30764815 1.56641751 8.06171464 3.68336156 12 6 C11.01 6.495 11.01 6.495 10 7 C9.67 7.66 9.34 8.32 9 9 C7.49704815 7.69088122 5.99770689 6.37761608 4.5 5.0625 C3.6646875 4.33160156 2.829375 3.60070312 1.96875 2.84765625 C1.3190625 2.23792969 0.669375 1.62820313 0 1 C0 0.67 0 0.34 0 0 Z " fill="#8F5644" transform="translate(189,629)"/>
<path d="M0 0 C4.83372821 0.01638552 9.41342223 0.3215333 14.1796875 1.1328125 C14.1796875 1.4628125 14.1796875 1.7928125 14.1796875 2.1328125 C12.24294565 2.32798804 10.30524741 2.51369123 8.3671875 2.6953125 C7.28824219 2.79972656 6.20929688 2.90414062 5.09765625 3.01171875 C1.92844234 3.14323901 -0.00401543 2.54096104 -2.8203125 1.1328125 C-1.8203125 0.1328125 -1.8203125 0.1328125 0 0 Z " fill="#8D5645" transform="translate(385.8203125,742.8671875)"/>
<path d="M0 0 C0 3.83764027 -1.26535335 5.11486085 -3.5 8.1875 C-4.1496875 9.08855469 -4.799375 9.98960937 -5.46875 10.91796875 C-5.9740625 11.60503906 -6.479375 12.29210937 -7 13 C-7.74609375 11.296875 -7.74609375 11.296875 -8 9 C-6.34765625 6.640625 -6.34765625 6.640625 -4.0625 4.25 C-3.31097656 3.45078125 -2.55945313 2.6515625 -1.78515625 1.828125 C-1.19605469 1.22484375 -0.60695313 0.6215625 0 0 Z " fill="#8D4E3E" transform="translate(507,508)"/>
<path d="M0 0 C0 3 0 3 0 3 Z " fill="#945543" transform="translate(509,505)"/>
<path d="" fill="#A87966" transform="translate(0,0)"/>
<path d="" fill="#A26858" transform="translate(0,0)"/>
<path d="" fill="#91553F" transform="translate(0,0)"/>
<path d="" fill="#A8796A" transform="translate(0,0)"/>
<path d="" fill="#A77A68" transform="translate(0,0)"/>
<path d="" fill="#A98071" transform="translate(0,0)"/>
<path d="" fill="#8E4B3A" transform="translate(0,0)"/>
<path d="" fill="#9B6354" transform="translate(0,0)"/>
<path d="" fill="#A26F5F" transform="translate(0,0)"/>
</svg>
